<?xml version="1.0" encoding="utf-8"?>
<!-- Generator: Adobe Illustrator 21.0.0, SVG Export Plug-In . SVG Version: 6.00 Build 0)  -->
<svg version="1.1" id="Capa_1" xmlns="http://www.w3.org/2000/svg" xmlns:xlink="http://www.w3.org/1999/xlink" x="0px" y="0px"
	 viewBox="0 0 100 100" style="enable-background:new 0 0 100 100;" xml:space="preserve">
<style type="text/css">
	.st0{fill:#8AC926;}
	.st1{fill:#FFFFFF;}
</style>
<circle class="st0" cx="50" cy="50" r="50"/>
<g>
	<path class="st1" d="M35.4,55.9c0.7,0,1.3,0.3,1.8,0.8c0.3,0.3,0.6,0.4,1,0.4c0.4,0,0.7-0.1,1-0.4c0.6-0.6,0.6-1.4,0-2
		c-1-1-2.4-1.6-3.8-1.6s-2.8,0.6-3.8,1.6c-0.6,0.6-0.6,1.4,0,2c0.6,0.6,1.4,0.6,2,0C34,56.2,34.7,55.9,35.4,55.9z"/>
	<path class="st1" d="M60.8,54.7c-0.6,0.6-0.6,1.4,0,2c0.6,0.6,1.4,0.6,2,0c1-1,2.6-1,3.7,0c0.3,0.3,0.6,0.4,1,0.4s0.7-0.1,1-0.4
		c0.6-0.6,0.6-1.4,0-2C66.4,52.6,62.9,52.6,60.8,54.7z"/>
	<path class="st1" d="M64.6,68.6c-8.1,8.1-21.2,8.1-29.3,0c-0.6-0.6-1.4-0.6-2,0c-0.6,0.6-0.6,1.4,0,2C38,75.2,44,77.5,50,77.5
		c6,0,12-2.3,16.6-6.9c0.6-0.6,0.6-1.4,0-2C66.1,68.1,65.2,68.1,64.6,68.6z"/>
	<path class="st1" d="M83.4,57.4c0-3.8-2.8-7-6.4-7.7V26.1c0-3.1-1.5-5.9-4.1-7.6c-2.4-1.6-5.4-2-8.1-1l-8.9-3
		c-6.8-2.3-14-2.6-20.8-0.7c-8.9,2.4-13.9,7.6-14.7,15c-0.7,0.9-1.2,1.9-1.6,3.1l-0.7,2c-0.4,1.1,0,2.2,1,2.9c1,0.6,2.2,0.5,3-0.3
		c0.3-0.3,0.6-0.5,0.9-0.7v14.1c-3.7,0.7-6.4,3.9-6.4,7.7c0,4,3,7.3,6.9,7.8c1,5.4,3.5,10.3,7.4,14.3c5.1,5.2,11.9,8,19.1,8
		c0,0,0,0,0,0c7.2,0,14-2.8,19-7.9c4-4,6.6-9,7.5-14.4C80.4,64.7,83.4,61.4,83.4,57.4z M71.3,20.8c1.8,1.2,2.8,3.1,2.8,5.3v18.5
		c-4.4-0.7-7.8-4.5-7.8-9.1L66.2,20C68,19.5,69.8,19.8,71.3,20.8z M21.2,33.5l0.3-0.8c0.7-2.1,2.3-3.9,4.4-4.7
		c2.1-0.9,4.4-0.8,6.5,0.1c4.3,2,9.5,0.9,12.6-2.6l0.4-0.4c0.5-0.6,0.5-1.5-0.1-2c-0.6-0.5-1.5-0.5-2,0.1l-0.4,0.4
		c-2.3,2.6-6.1,3.4-9.3,1.9c-2.8-1.3-6-1.3-8.8-0.1c-0.3,0.1-0.5,0.2-0.7,0.4c1.6-4.4,5.6-7.5,11.9-9.2c6.2-1.7,12.8-1.5,19.1,0.6
		l8.4,2.9l0.1,7.3c-3.7,5.1-9.2,8.5-15.4,9.7c-6.4,1.2-12.9-0.1-18.3-3.6C27.1,31.7,23.7,31.7,21.2,33.5z M19.5,57.4
		c0-2.3,1.5-4.2,3.6-4.8v7.7c0,0.7,0,1.3,0.1,2C21,61.7,19.5,59.7,19.5,57.4z M67.1,77.6c-4.6,4.6-10.6,7.1-17,7.1c0,0,0,0,0,0
		c-6.4,0-12.5-2.5-17.1-7.2c-4.5-4.6-7.1-10.7-7.1-17.2V35c0.8,0.1,1.6,0.3,2.3,0.8c6.1,4,13.3,5.4,20.4,4
		c5.8-1.1,10.9-3.9,14.9-8.1v3.8c0,6.1,4.6,11.2,10.6,11.9v13.1C74.1,67,71.6,73.1,67.1,77.6z M76.9,62.3c0-0.6,0.1-1.1,0.1-1.7
		v-7.9c2.1,0.6,3.6,2.5,3.6,4.8C80.5,59.7,79,61.7,76.9,62.3z"/>
</g>
</svg>
