<?xml version="1.0" encoding="utf-8"?>
<!-- Generator: Adobe Illustrator 21.0.0, SVG Export Plug-In . SVG Version: 6.00 Build 0)  -->
<svg version="1.1" id="Layer_1" xmlns="http://www.w3.org/2000/svg" xmlns:xlink="http://www.w3.org/1999/xlink" x="0px" y="0px"
	 viewBox="0 0 504.1 504.1" style="enable-background:new 0 0 504.1 504.1;" xml:space="preserve">
<style type="text/css">
	.st0{fill:#F3F3F3;}
	.st1{fill:#E7E7E7;}
	.st2{fill:#8AC926;}
	.st3{fill:#88BC24;}
	.st4{fill:#F9F9F9;}
</style>
<path class="st0" d="M456.9,78.8C457.3,78.8,257.2,2,252.1,0C248.1,1.6,46.9,78.8,47.3,78.8v144.9c0,100.4,28.8,231.6,204.8,280.4
	c175.7-48.8,204.4-182.4,204.4-280.4C456.9,174.1,456.9,78.8,456.9,78.8z"/>
<path class="st1" d="M47.3,223.7c0,100.4,28.8,231.6,204.8,280.4V0C244.6,2.8,47.3,78.8,47.3,78.8S47.3,223.7,47.3,223.7z"/>
<path class="st2" d="M417.1,105.9c0.4,0-161.1-65-165.4-66.6c-3.5,1.2-165.8,63.8-165.4,63.4v121.7c0,84.3,16.5,199.3,165.4,240.2
	c148.5-41,165.4-157.9,165.4-240.2C417.5,182.7,417.5,105.9,417.1,105.9z"/>
<path class="st3" d="M252.1,39.4c-3.5,1.2-165.8,63.8-165.4,63.4v121.7c0,84.3,16.5,199.3,165.4,240.2V39.4z"/>
<path class="st4" d="M330,213.5c-1.2-3.9-4.7-6.7-9.1-7.5l-41-5.9l-17.7-36.2c-2-3.9-5.9-6.3-10.2-6.3s-8.3,2.4-10.2,6.3l-17.7,36.2
	l-41,5.9c-4.3,0.8-7.9,3.5-9.1,7.5s-0.4,8.3,2.8,11l29.9,29.5l-7.1,41c-0.8,3.9,1.2,8.3,4.7,10.6c2,1.2,4.3,2,6.7,2
	c2,0,3.9-0.4,5.5-1.2l35.8-18.9l35.8,18.9c1.6,0.8,3.5,1.2,5.5,1.2c2.4,0,4.7-0.8,6.7-2c3.5-2.4,5.5-6.7,4.7-10.6l-7.1-41l29.9-29.5
	C330.4,221.3,331.6,217.4,330,213.5z"/>
</svg>
